<svg width="255" height="72" viewBox="0 0 255 72" fill="none" xmlns="http://www.w3.org/2000/svg">
<path d="M13.3333 62.6666H50.6667C53.608 62.6666 56 60.2746 56 57.3332V17.3333C56 14.3919 53.608 11.9999 50.6667 11.9999H45.3333C45.3333 11.2927 45.0524 10.6144 44.5523 10.1143C44.0522 9.6142 43.3739 9.33325 42.6667 9.33325H21.3333C20.6261 9.33325 19.9478 9.6142 19.4477 10.1143C18.9476 10.6144 18.6667 11.2927 18.6667 11.9999H13.3333C10.392 11.9999 8 14.3919 8 17.3333V57.3332C8 60.2746 10.392 62.6666 13.3333 62.6666ZM13.3333 17.3333H18.6667V22.6666H45.3333V17.3333H50.6667V57.3332H13.3333V17.3333Z" fill="#4392F1"/>
<path d="M29.3333 40.2294L24.552 35.4481L20.7813 39.2187L29.3333 47.7707L43.2187 33.8854L39.448 30.1147L29.3333 40.2294Z" fill="#4392F1"/>
<path d="M113.136 19.304V53H104.928V32.792L97.392 53H90.768L83.184 32.744V53H74.976V19.304H84.672L94.128 42.632L103.488 19.304H113.136ZM146.399 26.216L129.599 65.72H120.767L126.911 52.088L116.014 26.216H125.183L131.375 42.968L137.519 26.216H146.399Z" fill="#232528"/>
<path d="M164.295 46.04V53H160.119C157.143 53 154.823 52.28 153.159 50.84C151.495 49.368 150.663 46.984 150.663 43.688V33.032H147.399V26.216H150.663V19.688H158.871V26.216H164.247V33.032H158.871V43.784C158.871 44.584 159.063 45.16 159.447 45.512C159.831 45.864 160.471 46.04 161.367 46.04H164.295ZM167.235 39.56C167.235 36.808 167.747 34.392 168.771 32.312C169.827 30.232 171.251 28.632 173.043 27.512C174.835 26.392 176.835 25.832 179.043 25.832C180.931 25.832 182.579 26.216 183.987 26.984C185.427 27.752 186.531 28.76 187.299 30.008V26.216H195.507V53H187.299V49.208C186.499 50.456 185.379 51.464 183.939 52.232C182.531 53 180.883 53.384 178.995 53.384C176.819 53.384 174.835 52.824 173.043 51.704C171.251 50.552 169.827 48.936 168.771 46.856C167.747 44.744 167.235 42.312 167.235 39.56ZM187.299 39.608C187.299 37.56 186.723 35.944 185.571 34.76C184.451 33.576 183.075 32.984 181.443 32.984C179.811 32.984 178.419 33.576 177.267 34.76C176.147 35.912 175.587 37.512 175.587 39.56C175.587 41.608 176.147 43.24 177.267 44.456C178.419 45.64 179.811 46.232 181.443 46.232C183.075 46.232 184.451 45.64 185.571 44.456C186.723 43.272 187.299 41.656 187.299 39.608ZM212.341 53.384C210.005 53.384 207.925 52.984 206.101 52.184C204.277 51.384 202.837 50.296 201.781 48.92C200.725 47.512 200.133 45.944 200.005 44.216H208.117C208.213 45.144 208.645 45.896 209.413 46.472C210.181 47.048 211.125 47.336 212.245 47.336C213.269 47.336 214.053 47.144 214.597 46.76C215.173 46.344 215.461 45.816 215.461 45.176C215.461 44.408 215.061 43.848 214.261 43.496C213.461 43.112 212.165 42.696 210.373 42.248C208.453 41.8 206.853 41.336 205.573 40.856C204.293 40.344 203.189 39.56 202.261 38.504C201.333 37.416 200.869 35.96 200.869 34.136C200.869 32.6 201.285 31.208 202.117 29.96C202.981 28.68 204.229 27.672 205.861 26.936C207.525 26.2 209.493 25.832 211.765 25.832C215.125 25.832 217.765 26.664 219.685 28.328C221.637 29.992 222.757 32.2 223.045 34.952H215.461C215.333 34.024 214.917 33.288 214.213 32.744C213.541 32.2 212.645 31.928 211.525 31.928C210.565 31.928 209.829 32.12 209.317 32.504C208.805 32.856 208.549 33.352 208.549 33.992C208.549 34.76 208.949 35.336 209.749 35.72C210.581 36.104 211.861 36.488 213.589 36.872C215.573 37.384 217.189 37.896 218.437 38.408C219.685 38.888 220.773 39.688 221.701 40.808C222.661 41.896 223.157 43.368 223.189 45.224C223.189 46.792 222.741 48.2 221.845 49.448C220.981 50.664 219.717 51.624 218.053 52.328C216.421 53.032 214.517 53.384 212.341 53.384ZM244.578 53L236.418 41.768V53H228.21V17.48H236.418V37.112L244.53 26.216H254.658L243.522 39.656L254.754 53H244.578Z" fill="#4392F1"/>
</svg>
